<svg id="Слой_1" data-name="Слой 1" xmlns="http://www.w3.org/2000/svg" xmlns:xlink="http://www.w3.org/1999/xlink" viewBox="0 0 877.44 416.64"><defs><style>.cls-1{isolation:isolate;}.cls-2{fill:none;}</style></defs><title>12-13floor</title><g id="img"><image class="cls-1" width="3656" height="1736" transform="scale(0.24)" xlink:href="\img\12-13.jpg"/></g><g id="_1" data-name="1"><path class="cls-2" d="M168,48h19.83V28.13l63.24.13L251,22.67h76.67V47.33H336V189.09l-77,.58H227.33v18.65H65v-2H39.67V89.67s4.67-41.33,42-58.67S154.33,30,168,48Z"/></g><g id="_2" data-name="2"><polygon class="cls-2" points="329.33 189.33 453.33 189.33 453.33 22.67 324.33 22.67 324.33 56 329.67 56 329.33 189.33"/></g><g id="_3" data-name="3"><polygon class="cls-2" points="579 386.67 812.33 386.67 812.33 383.33 858 383.33 858 378.33 850.33 378.33 850.33 317.67 812.33 317.67 812.33 310.67 711.33 210 732 189 670.67 127.67 650.33 148 618.67 117.33 579.5 156.5 579 386.67"/></g><g id="_4" data-name="4"><polygon class="cls-2" points="584.33 387.33 584.33 218 388.33 218 388.33 351.33 390.67 351.33 390.67 377.33 445.33 377.33 445.33 387.33 584.33 387.33"/></g><g id="_5" data-name="5"><polygon class="cls-2" points="394.67 217.67 394.67 377 338.33 377 338.33 385.33 252.67 385.33 252.67 217.67 394.67 217.67"/></g><g id="_6" data-name="6"><path class="cls-2" d="M259,386.67H111s-31,2.33-57.33-30c-5.67-8-11-22-12.67-29.33l-1.33-124H227v14h32Z"/></g></svg>