<svg id="Слой_1" data-name="Слой 1" xmlns="http://www.w3.org/2000/svg" xmlns:xlink="http://www.w3.org/1999/xlink" viewBox="0 0 868.8 414.72"><defs><style>.cls-1{isolation:isolate;}.cls-2{fill:none;}</style></defs><title>14floor</title><g id="img"><image class="cls-1" width="3620" height="1728" transform="scale(0.24)" xlink:href="\img\14.jpg"/></g><g id="_1" data-name="1"><path class="cls-2" d="M319,47.33h7.67V189h-108v18.36h-187V136.67H44s-26.33-28.67-3.67-73S111,23.33,111,23.33,134.67,26.67,145.33,35,160,47.67,160,47.67h18.9V28h62.77V21h77Z"/></g><g id="_2" data-name="2"><polygon class="cls-2" points="321.33 189.33 416.33 189.33 416.33 152.33 444.67 152.33 444.67 22.33 316.33 22.33 316.33 55.33 321.33 55.33 321.33 189.33"/></g><g id="_3" data-name="3"><polygon class="cls-2" points="570.33 155 610.33 116.33 641.67 148 662 127.67 723.33 189 703 209.33 804.17 310.5 804.17 316.67 842 316.67 842 376.67 849.33 376.67 849.33 382.67 804 382.67 804 386.67 570.33 386.67 570.33 155"/></g><g id="_4" data-name="4"><polygon class="cls-2" points="576.33 386.33 576.33 217 380.33 217 380.33 350.67 382.67 350.67 382.67 376.67 437 376.67 437 386.33 576.33 386.33"/></g><g id="_5" data-name="5"><polygon class="cls-2" points="244.67 218 386 218 386 350.33 384.75 350.33 384.75 376.88 330 376.88 330 385 323.67 385 323.67 401.33 297 401.33 297 386 244.67 386 244.67 218"/></g><g id="_6" data-name="6"><path class="cls-2" d="M250.33,386H101.67S62,388,38,344.33c-8-22-11.67-42.67,6-72.33H33.33V203.33H58.67v-2.21h159V218h32.67V386Z"/></g></svg>