<svg id="Слой_1" data-name="Слой 1" xmlns="http://www.w3.org/2000/svg" xmlns:xlink="http://www.w3.org/1999/xlink" viewBox="0 0 879.36 414.72"><defs><style>.cls-1{isolation:isolate;}.cls-2{fill:none;}</style></defs><title>16floor</title><g id="img"><image class="cls-1" width="3664" height="1728" transform="scale(0.24)" xlink:href="\img\16.jpg"/></g><g id="_1" data-name="1"><path class="cls-2" d="M221.33,184.67H330V42.33h-7.67V17.67h-77v5.67H181.67v19H162.33S123.33-2.33,66.67,31C42,47,26,79.33,38,115.67a65.4,65.4,0,0,0,10.67,20H33.93v66H221.33v-17Z"/></g><g id="_2" data-name="2"><polygon class="cls-2" points="323.67 184.33 418.67 184.33 418.67 147.67 447.67 147.67 447.67 17.67 378.67 17.67 319 17.67 319 51 324.33 51 323.67 184.33"/></g><g id="_3" data-name="3"><polygon class="cls-2" points="572.67 152 612.67 112 644.5 143.83 665.33 123 726.5 184.17 705.83 204.83 806.5 305.5 806.5 312.33 844.33 312.33 844.33 373 852.33 373 852.33 377.67 807 377.67 807 381.67 572.67 381.67 572.67 152"/></g><g id="_4" data-name="4"><polygon class="cls-2" points="578.67 381.67 578.67 212.67 382.33 212.67 382.33 346.33 384.58 346.33 384.58 372.33 439.68 372.33 439.68 381.67 578.67 381.67"/></g><g id="_5" data-name="5"><polygon class="cls-2" points="247 382 299.75 382 299.75 397.5 326.5 397.5 326.5 382 332 382 332 372.67 387.67 372.67 387.67 347 389.25 347 389.25 213 247 213 247 382"/></g><g id="_6" data-name="6"><path class="cls-2" d="M253.5,382h-147s-39.5,2.5-64-38c-8-16.5-17.5-43.5,6.5-80H33.72V197.5H221V213h32.5Z"/></g></svg>