<svg id="Слой_1" data-name="Слой 1" xmlns="http://www.w3.org/2000/svg" xmlns:xlink="http://www.w3.org/1999/xlink" viewBox="0 0 872.64 416.64"><defs><style>.cls-1{isolation:isolate;}.cls-2{fill:none;}</style></defs><title>17floor</title><g id="img"><image class="cls-1" width="3636" height="1736" transform="scale(0.24)" xlink:href="\img\17.jpg"/></g><g id="_1" data-name="1"><path class="cls-2" d="M327.67,45.33h-7v-25H244v5H181v20H162S119-2.33,61.67,36C33,54,21.33,104.67,47.67,138.67H33v66.67H220V187H327.67Z"/></g><g id="_2" data-name="2"><polygon class="cls-2" points="322.33 187.33 418 187.33 418 150.33 446.33 150.33 446.33 19.67 317.67 19.67 317.67 54 322.67 54 322.33 187.33"/></g><g id="_3" data-name="3"><polygon class="cls-2" points="571.67 154.33 612 114 643.5 145.5 663.5 125.5 725.17 187.17 704.34 207.99 805.17 308.83 805.17 315.33 843.33 315.33 843.33 375 850.33 375 850.33 380.67 805.67 380.67 805.67 385 571.67 385 571.67 154.33"/></g><g id="_4" data-name="4"><polygon class="cls-2" points="577.33 385.67 577.33 215.33 381 215.33 381 348.33 383.67 348.33 383.67 375.17 438.83 375.17 438.83 385.67 577.33 385.67"/></g><g id="_5" data-name="5"><polygon class="cls-2" points="387.67 215.33 387.67 348.67 386.08 348.67 386.08 375 331 375 331 384 246.33 384 246.33 215.33 387.67 215.33"/></g><g id="_6" data-name="6"><path class="cls-2" d="M252,384H240.67v15.67h-32V384H102s-39-2.33-59-36.33-5.67-62.33-5.67-62.33L46.67,267H32.36V199.67h187v15H252Z"/></g></svg>