<svg id="Слой_1" data-name="Слой 1" xmlns="http://www.w3.org/2000/svg" xmlns:xlink="http://www.w3.org/1999/xlink" viewBox="0 0 864 439.2"><defs><style>.cls-1{isolation:isolate;}.cls-2{fill:none;}</style></defs><title>18-1floor</title><g id="img"><image class="cls-1" width="3600" height="1830" transform="scale(0.24)" xlink:href="\img\18-1.jpg"/></g><g id="_1" data-name="1"><path class="cls-2" d="M323.33,202.67V61h-7V35.33h-78v5.33h-63V60H156S106.67,9.67,50,58c-12.33,9.67-38.33,51-7.33,95.67H28V219.6H213.67V201.67Z"/></g><g id="_2" data-name="2"><polygon class="cls-2" points="317 202.33 412.33 202.33 412.33 165.33 441.33 165.33 441.33 35.33 312.33 35.33 312.33 68.67 318 68.67 317 202.33"/></g><g id="_3" data-name="3"><polygon class="cls-2" points="566.33 170 606.5 129.83 637.83 161.17 658.33 140.67 719.67 202 699.17 222.5 800.17 323.5 800.17 331.67 836.67 331.67 836.67 395.67 801 395.67 801 399.33 566.33 399.33 566.33 170"/></g><g id="_4" data-name="4"><polygon class="cls-2" points="572 231 376 231 376 364 379 364 379 396.33 434 396.33 434 401 572 401 572 231"/></g><g id="_5" data-name="5"><polygon class="cls-2" points="381.33 396.33 325.33 396.33 325.33 399.67 240.33 399.67 240.33 231.33 381.33 231.33 381.33 396.33"/></g><g id="_6" data-name="6"><path class="cls-2" d="M247,399.67H104S62,402.33,39.33,366s-6-67-6-67l9.33-16.67H27.43V215.67H215v15.67h32Z"/></g></svg>