<svg id="Слой_1" data-name="Слой 1" xmlns="http://www.w3.org/2000/svg" xmlns:xlink="http://www.w3.org/1999/xlink" viewBox="0 0 1089.6 535.2"><defs><style>.cls-1{isolation:isolate;}.cls-2{fill:none;}</style></defs><title>1floor</title><g id="img"><image class="cls-1" width="4540" height="2230" transform="scale(0.24)" xlink:href="\img\1.jpg"/></g><g id="_1" data-name="1"><path class="cls-2" d="M72.72,273.25l54.16-.31-.13-2.19,336.13.25V84H259.5v26H176.25s-42.25-50-102-7.5c-16,18.75-17.75,11.75-26.25,50,0,0-4,28.25,16.5,53.25H73Z"/></g><g id="_2" data-name="2"><path class="cls-2" d="M73,264.83H462.75v48.92H344.5V450H125s-58.5,6-76.5-62.25c0-21-.5-39.5,16-58H72Z"/></g><g id="_3" data-name="3"><polygon class="cls-2" points="398 309.33 457.33 309.33 457.33 243.33 507.33 243.33 507.33 241.5 588.5 241.5 588.5 236.13 588.5 231.75 643.25 231.75 643.25 200.25 650 200.25 728.38 278.63 687.5 319.5 766.17 398.17 749.33 398.17 749.33 452.67 398 452.67 398 309.33"/></g></svg>