<svg id="Слой_1" data-name="Слой 1" xmlns="http://www.w3.org/2000/svg" xmlns:xlink="http://www.w3.org/1999/xlink" viewBox="0 0 885.12 413.76"><defs><style>.cls-1{isolation:isolate;}.cls-2{fill:none;stroke:#000;stroke-miterlimit:10;}</style></defs><title>3floor</title><g id="img"><image class="cls-1" width="3688" height="1724" transform="scale(0.24)" xlink:href="\img\3.jpg"/></g><g id="_1" data-name="1"><path class="cls-2" d="M264.67,36.33l-5,.17-.17-19.83H194l-.33,19.67h-20S141.67-2,90,18s-44.33,82.67-44.33,82.67L45.31,132v64.33H264.67Z"/></g><g id="_2" data-name="2"><polygon class="cls-2" points="258.33 178 258.33 44.67 256.33 44.67 256.33 11.33 334 11.33 334 36.67 341 36.67 341 178 258.33 178"/></g><g id="_3" data-name="3"><polygon class="cls-2" points="335 178.67 431 178.67 431 140.67 459.33 140.67 459.33 11 330.67 11 330.67 36.33 330.67 45 335.67 45 335 178.67"/></g><g id="_4" data-name="4"><polygon class="cls-2" points="667.67 261 723.67 205.33 716.67 198 737.33 177.67 676.33 116.33 656 136.33 625.33 105 584.67 145 584.67 172 589.67 176 607.67 194 604.33 198 667.67 261"/></g><g id="_5" data-name="5"><polygon class="cls-2" points="585 374.67 818.67 374.67 818.67 371.67 863.67 371.67 863.67 366.67 857 366.67 857 306.67 818.33 306.67 818.33 299 721.33 201.67 668.67 254.33 608.33 194.33 585 217.67 585 374.67"/></g><g id="_6" data-name="6"><polygon class="cls-2" points="590 375.67 590 214.33 554.67 214.33 554.67 206.88 394.67 206.88 394.67 365.67 451.67 365.67 451.67 375.67 590 375.67"/></g><g id="_7" data-name="7"><polygon class="cls-2" points="258.67 207 258.67 375 343.67 375 343.67 366.33 398.67 366.33 398.67 206.88 258.67 207"/></g><g id="_8" data-name="8"><path class="cls-2" d="M232.67,190.33V207h32V374.67h-145s-36,3-61.67-33C46.67,322.33,45.33,321,46,272.33v-82Z"/></g></svg>