<?xml version="1.0" encoding="utf-8"?><svg xmlns="http://www.w3.org/2000/svg" xmlns:xlink="http://www.w3.org/1999/xlink"><symbol id="11floor" viewBox="0 0 859.2 407.04" xmlns="http://www.w3.org/2000/svg"><defs><style>.acls-1{isolation:isolate}.acls-2{fill:none}</style></defs><image class="acls-1" width="3580" height="1696" transform="scale(.24)" xmlns:xlink="http://www.w3.org/1999/xlink" xlink:href="\img\11.jpg" id="aimg"/><path class="acls-2" d="M213 200.33v-18.66h33V40h-5.33V20.33H175v20h-20s-28-39.67-87.33-17C40 35.33 30.67 65 30.67 65L27 80.67v119.66h186z" id="a_1" data-name="1"/><path class="acls-2" d="M239 181.67h82.67V40H315V14h-77.67v34.33h2.34L239 181.67z" id="a_2" data-name="2"/><path class="acls-2" d="M316 181h94.67v-36.33h29V15H311.33v33.67h5.34L316 181z" id="a_3" data-name="3"/><path class="acls-2" d="M564.67 148L606 109.67l30.33 30.66 21-20 61 60.67-20.66 20.67L799.33 303v7.33h37.34V370H844v5.67h-45.33V379h-234V148z" id="a_4" data-name="4"/><path class="acls-2" d="M375.33 210H571v169H375.33z" id="a_5" data-name="5"/><path class="acls-2" d="M239.67 210H380v169H239.67z" id="a_6" data-name="6"/><path class="acls-2" d="M245 378.67H100.33s-38.33.67-62.67-34.33A81.34 81.34 0 0128 320l-1.67-13.67v-111h187v15H245z" id="a_7" data-name="7"/></symbol><symbol id="12-13floor" viewBox="0 0 877.44 416.64" xmlns="http://www.w3.org/2000/svg"><defs><style>.bcls-1{isolation:isolate}.bcls-2{fill:none}</style></defs><image class="bcls-1" width="3656" height="1736" transform="scale(.24)" xmlns:xlink="http://www.w3.org/1999/xlink" xlink:href="\img\12-13.jpg" id="bimg"/><path class="bcls-2" d="M168 48h19.83V28.13l63.24.13-.07-5.59h76.67v24.66H336v141.76l-77 .58h-31.67v18.65H65v-2H39.67V89.67s4.67-41.33 42-58.67 72.66-1 86.33 17z" id="b_1" data-name="1"/><path class="bcls-2" d="M329.33 189.33h124V22.67h-129V56h5.34l-.34 133.33z" id="b_2" data-name="2"/><path class="bcls-2" d="M579 386.67h233.33v-3.34H858v-5h-7.67v-60.66h-38v-7L711.33 210 732 189l-61.33-61.33L650.33 148l-31.66-30.67-39.17 39.17-.5 230.17z" id="b_3" data-name="3"/><path class="bcls-2" d="M584.33 387.33V218h-196v133.33h2.34v26h54.66v10h139z" id="b_4" data-name="4"/><path class="bcls-2" d="M394.67 217.67V377h-56.34v8.33h-85.66V217.67h142z" id="b_5" data-name="5"/><path class="bcls-2" d="M259 386.67H111s-31 2.33-57.33-30c-5.67-8-11-22-12.67-29.33l-1.33-124H227v14h32z" id="b_6" data-name="6"/></symbol><symbol id="14floor" viewBox="0 0 868.8 414.72" xmlns="http://www.w3.org/2000/svg"><defs><style>.ccls-1{isolation:isolate}.ccls-2{fill:none}</style></defs><image class="ccls-1" width="3620" height="1728" transform="scale(.24)" xmlns:xlink="http://www.w3.org/1999/xlink" xlink:href="\img\14.jpg" id="cimg"/><path class="ccls-2" d="M319 47.33h7.67V189h-108v18.36h-187v-70.69H44s-26.33-28.67-3.67-73S111 23.33 111 23.33s23.67 3.34 34.33 11.67S160 47.67 160 47.67h18.9V28h62.77v-7h77z" id="c_1" data-name="1"/><path class="ccls-2" d="M321.33 189.33h95v-37h28.34v-130H316.33v33h5v134z" id="c_2" data-name="2"/><path class="ccls-2" d="M570.33 155l40-38.67L641.67 148 662 127.67 723.33 189 703 209.33 804.17 310.5v6.17H842v60h7.33v6H804v4H570.33V155z" id="c_3" data-name="3"/><path class="ccls-2" d="M576.33 386.33V217h-196v133.67h2.34v26H437v9.66h139.33z" id="c_4" data-name="4"/><path class="ccls-2" d="M244.67 218H386v132.33h-1.25v26.55H330V385h-6.33v16.33H297V386h-52.33V218z" id="c_5" data-name="5"/><path class="ccls-2" d="M250.33 386H101.67S62 388 38 344.33c-8-22-11.67-42.67 6-72.33H33.33v-68.67h25.34v-2.21h159V218h32.67v168z" id="c_6" data-name="6"/></symbol><symbol id="15floor" viewBox="0 0 879.36 414.72" xmlns="http://www.w3.org/2000/svg"><defs><style>.dcls-1{isolation:isolate}.dcls-2{fill:none}</style></defs><image class="dcls-1" width="3664" height="1728" transform="scale(.24)" xmlns:xlink="http://www.w3.org/1999/xlink" xlink:href="\img\15.jpg" id="dimg"/><path class="dcls-2" d="M163 43.33h19V23h63v-5.33h76.67v25.66h7.67v141.34H221v18H34v-67.34h14.67S24 101 39.67 64.67 86.33 22 86.33 22 132.67 7 163 43.33z" id="d_1" data-name="1"/><path class="dcls-2" d="M321 42.67h3.33v141.66s94.67 2.33 94.67 0V148h28.67V17.33H319v25.36z" id="d_2" data-name="2"/><path class="dcls-2" d="M573 150l39.5-38.5 32 32 20.13-20.12 61.25 61.25L705 205.5l100.63 100.63V313h39.12v60H852v5.25h-45.5V382H573V150z" id="d_3" data-name="3"/><path class="dcls-2" d="M578.33 381.67v-169h-195v160h56.35v9h138.65z" id="d_4" data-name="4"/><path class="dcls-2" d="M389 213.33V346h-1.83v26H332v9.5h-5v15.75h-28.5V381.5h-51.75V213.33H389z" id="d_5" data-name="5"/><path class="dcls-2" d="M252.67 381.33h-146s-47 1-67.67-46.67C34.33 318 28.67 291 48.67 264.33H34.52v-66h185.81v15h32.33v168z" id="d_6" data-name="6"/></symbol><symbol id="16floor" viewBox="0 0 879.36 414.72" xmlns="http://www.w3.org/2000/svg"><defs><style>.ecls-1{isolation:isolate}.ecls-2{fill:none}</style></defs><image class="ecls-1" width="3664" height="1728" transform="scale(.24)" xmlns:xlink="http://www.w3.org/1999/xlink" xlink:href="\img\16.jpg" id="eimg"/><path class="ecls-2" d="M221.33 184.67H330V42.33h-7.67V17.67h-77v5.67h-63.66v19h-19.34S123.33-2.33 66.67 31C42 47 26 79.33 38 115.67a65.4 65.4 0 0010.67 20H33.93v66h187.4v-17z" id="e_1" data-name="1"/><path class="ecls-2" d="M323.67 184.33h95v-36.66h29v-130H319V51h5.33l-.66 133.33z" id="e_2" data-name="2"/><path class="ecls-2" d="M572.67 152l40-40 31.83 31.83L665.33 123l61.17 61.17-20.67 20.66L806.5 305.5v6.83h37.83V373h8v4.67H807v4H572.67V152z" id="e_3" data-name="3"/><path class="ecls-2" d="M578.67 381.67v-169H382.33v133.66h2.25v26h55.1v9.34h138.99z" id="e_4" data-name="4"/><path class="ecls-2" d="M247 382h52.75v15.5h26.75V382h5.5v-9.33h55.67V347h1.58V213H247v169z" id="e_5" data-name="5"/><path class="ecls-2" d="M253.5 382h-147s-39.5 2.5-64-38c-8-16.5-17.5-43.5 6.5-80H33.72v-66.5H221V213h32.5z" id="e_6" data-name="6"/></symbol><symbol id="17floor" viewBox="0 0 872.64 416.64" xmlns="http://www.w3.org/2000/svg"><defs><style>.fcls-1{isolation:isolate}.fcls-2{fill:none}</style></defs><image class="fcls-1" width="3636" height="1736" transform="scale(.24)" xmlns:xlink="http://www.w3.org/1999/xlink" xlink:href="\img\17.jpg" id="fimg"/><path class="fcls-2" d="M327.67 45.33h-7v-25H244v5h-63v20h-19S119-2.33 61.67 36c-28.67 18-40.34 68.67-14 102.67H33v66.67h187V187h107.67z" id="f_1" data-name="1"/><path class="fcls-2" d="M322.33 187.33H418v-37h28.33V19.67H317.67V54h5l-.34 133.33z" id="f_2" data-name="2"/><path class="fcls-2" d="M571.67 154.33L612 114l31.5 31.5 20-20 61.67 61.67-20.83 20.82 100.83 100.84v6.5h38.16V375h7v5.67h-44.66V385h-234V154.33z" id="f_3" data-name="3"/><path class="fcls-2" d="M577.33 385.67V215.33H381v133h2.67v26.84h55.16v10.5h138.5z" id="f_4" data-name="4"/><path class="fcls-2" d="M387.67 215.33v133.34h-1.59V375H331v9h-84.67V215.33h141.34z" id="f_5" data-name="5"/><path class="fcls-2" d="M252 384h-11.33v15.67h-32V384H102s-39-2.33-59-36.33-5.67-62.33-5.67-62.33L46.67 267H32.36v-67.33h187v15H252z" id="f_6" data-name="6"/></symbol><symbol id="18-1floor" viewBox="0 0 864 439.2" xmlns="http://www.w3.org/2000/svg"><defs><style>.gcls-1{isolation:isolate}.gcls-2{fill:none}</style></defs><image class="gcls-1" width="3600" height="1830" transform="scale(.24)" xmlns:xlink="http://www.w3.org/1999/xlink" xlink:href="\img\18-1.jpg" id="gimg"/><path class="gcls-2" d="M323.33 202.67V61h-7V35.33h-78v5.33h-63V60H156S106.67 9.67 50 58c-12.33 9.67-38.33 51-7.33 95.67H28v65.93h185.67v-17.93z" id="g_1" data-name="1"/><path class="gcls-2" d="M317 202.33h95.33v-37h29v-130h-129v33.34H318l-1 133.66z" id="g_2" data-name="2"/><path class="gcls-2" d="M566.33 170l40.17-40.17 31.33 31.34 20.5-20.5L719.67 202l-20.5 20.5 101 101v8.17h36.5v64H801v3.66H566.33V170z" id="g_3" data-name="3"/><path class="gcls-2" d="M572 231H376v133h3v32.33h55V401h138V231z" id="g_4" data-name="4"/><path class="gcls-2" d="M381.33 396.33h-56v3.34h-85V231.33h141v165z" id="g_5" data-name="5"/><path class="gcls-2" d="M247 399.67H104S62 402.33 39.33 366s-6-67-6-67l9.33-16.67H27.43v-66.66H215v15.67h32z" id="g_6" data-name="6"/></symbol><symbol id="18-2floor" viewBox="0 0 881.28 404.16" xmlns="http://www.w3.org/2000/svg"><defs><style>.hcls-1{isolation:isolate}.hcls-2{fill:none}</style></defs><image class="hcls-1" width="3672" height="1684" transform="scale(.24)" xmlns:xlink="http://www.w3.org/1999/xlink" xlink:href="\img\18-2.jpg" id="himg"/><path class="hcls-2" d="M252.67 180V12.67h-8v4.67h-63.34v20H163s-41.67-46-97.67-11C41.67 41.33 18 87.67 48 131H33.9v63.33H220V179z" id="h_1" data-name="1"/><path class="hcls-2" d="M572.33 146.67l40.34-40L644 138.33 664.33 118l61.34 61L705 199l101.33 101.67v7h38v59.66h7.34V373h-46v3.33H572.33V146.67z" id="h_2" data-name="2"/><path class="hcls-2" d="M253.33 376.33V208H221v-17.33H33.67V259h14.66s-34.67 42 2.33 91.33c7.67 6.67 11.67 18 49 26z" id="h_3" data-name="3"/></symbol><symbol id="1floor" viewBox="0 0 1089.6 535.2" xmlns="http://www.w3.org/2000/svg"><defs><style>.icls-1{isolation:isolate}.icls-2{fill:none}</style></defs><image class="icls-1" width="4540" height="2230" transform="scale(.24)" xmlns:xlink="http://www.w3.org/1999/xlink" xlink:href="\img\1.jpg" id="iimg"/><path class="icls-2" d="M72.72 273.25l54.16-.31-.13-2.19 336.13.25V84H259.5v26h-83.25s-42.25-50-102-7.5c-16 18.75-17.75 11.75-26.25 50 0 0-4 28.25 16.5 53.25H73z" id="i_1" data-name="1"/><path class="icls-2" d="M73 264.83h389.75v48.92H344.5V450H125s-58.5 6-76.5-62.25c0-21-.5-39.5 16-58H72z" id="i_2" data-name="2"/><path class="icls-2" d="M398 309.33h59.33v-66h50v-1.83h81.17v-9.75h54.75v-31.5H650l78.38 78.38-40.88 40.87 78.67 78.67h-16.84v54.5H398V309.33z" id="i_3" data-name="3"/></symbol><symbol id="2floor" viewBox="0 0 862.08 466.56" xmlns="http://www.w3.org/2000/svg"><defs><style>.jcls-1{isolation:isolate}.jcls-2{fill:none;stroke:#000;stroke-miterlimit:10}</style></defs><image class="jcls-1" width="3592" height="1944" transform="scale(.24)" xmlns:xlink="http://www.w3.org/1999/xlink" xlink:href="\img\2.jpg" id="jimg"/><path class="jcls-2" d="M83.5 223.63v-65h-8.83s-35-41.33-2.33-90.33 100-28 114-5h83.33V37H355v186.63z" id="j_1" data-name="1"/><path class="jcls-2" d="M83.5 223.63v59H75S47 310 63.33 357 134 403.33 134 403.33h221v-179.7z" id="j_2" data-name="2"/><path class="jcls-2" d="M348 200.33h96.33v-32.66H473V37H356v28.67h-4.67v74.66H348v60z" id="j_3" data-name="3"/><path class="jcls-2" d="M544.33 403V237.33H410.5v24.34h-2.17V403h136z" id="j_4" data-name="4"/><path class="jcls-2" d="M542 237v165.67h197.33V385L592 237h-50z" id="j_5" data-name="5"/></symbol><symbol id="3floor" viewBox="0 0 885.12 413.76" xmlns="http://www.w3.org/2000/svg"><defs><style>.kcls-1{isolation:isolate}.kcls-2{fill:none;stroke:#000;stroke-miterlimit:10}</style></defs><image class="kcls-1" width="3688" height="1724" transform="scale(.24)" xmlns:xlink="http://www.w3.org/1999/xlink" xlink:href="\img\3.jpg" id="kimg"/><path class="kcls-2" d="M264.67 36.33l-5 .17-.17-19.83H194l-.33 19.67h-20S141.67-2 90 18s-44.33 82.67-44.33 82.67L45.31 132v64.33h219.36z" id="k_1" data-name="1"/><path class="kcls-2" d="M258.33 178V44.67h-2V11.33H334v25.34h7V178h-82.67z" id="k_2" data-name="2"/><path class="kcls-2" d="M335 178.67h96v-38h28.33V11H330.67v34h5L335 178.67z" id="k_3" data-name="3"/><path class="kcls-2" d="M667.67 261l56-55.67-7-7.33 20.66-20.33-61-61.34-20.33 20L625.33 105l-40.66 40v27l5 4 18 18-3.34 4 63.34 63z" id="k_4" data-name="4"/><path class="kcls-2" d="M585 374.67h233.67v-3h45v-5H857v-60h-38.67V299l-97-97.33-52.66 52.66-60.34-60L585 217.67v157z" id="k_5" data-name="5"/><path class="kcls-2" d="M590 375.67V214.33h-35.33v-7.45h-160v158.79h57v10H590z" id="k_6" data-name="6"/><path class="kcls-2" d="M258.67 207v168h85v-8.67h55V206.88l-140 .12z" id="k_7" data-name="7"/><path class="kcls-2" d="M232.67 190.33V207h32v167.67h-145s-36 3-61.67-33C46.67 322.33 45.33 321 46 272.33v-82z" id="k_8" data-name="8"/></symbol><symbol id="4-10floor" viewBox="0 0 846.72 424.32" xmlns="http://www.w3.org/2000/svg"><defs><style>.lcls-1{isolation:isolate}.lcls-2{fill:none}</style></defs><image class="lcls-1" width="3528" height="1768" transform="scale(.24)" xmlns:xlink="http://www.w3.org/1999/xlink" xlink:href="\img\4-10.jpg" id="limg"/><path class="lcls-2" d="M204.33 201.33v-17.66H238V42.33h-6.33v-21h-66V42H146S118.33 3.33 62.67 23.33C35.67 33.67 21.33 60 18.33 80.67v120.66h186z" id="l_1" data-name="1"/><path class="lcls-2" d="M230.67 183.33H313V41.67h-7V16h-75.33v167.33z" id="l_2" data-name="2"/><path class="lcls-2" d="M307.33 183.67h95.34v-37h29V16.33H303.33V50h4v133.67z" id="l_3" data-name="3"/><path class="lcls-2" d="M556.67 149.67L597 112l31 30.67 20.33-21L709.67 183 689 203.33l6 6-54.67 58-64-64.33 3.34-3.33-23-24v-26z" id="l_4" data-name="4"/><path class="lcls-2" d="M790 380H556.67V220H559l3-2.67 18.33-17.66 61 59.66L693 207l97 97.67v7.66h38v59h7v5.34h-44.67L790 380z" id="l_5" data-name="5"/><path class="lcls-2" d="M562 380.33v-161h-36v-7.17H366.67V345h2v35.33H562z" id="l_6" data-name="6"/><path class="lcls-2" d="M373.33 212.16V345h-2v35.33H231V212.16h142.33z" id="l_7" data-name="7"/><path class="lcls-2" d="M236.67 380.33V212.16h-31.34V196h-187v117.33s0 24.67 25 49.33C59.67 374 58.67 375 85.67 380.33z" id="l_8" data-name="8"/></symbol><symbol id="m1" viewBox="0 0 928.8 456" xmlns="http://www.w3.org/2000/svg"><defs><style>.mcls-1{isolation:isolate}.mcls-2{fill:none}</style></defs><image class="mcls-1" width="3870" height="1900" transform="scale(.24)" xmlns:xlink="http://www.w3.org/1999/xlink" xlink:href="\img\m1.jpg" id="mimg"/><path class="mcls-2" d="M125.33 408h709.34v-5.33h37.67v-66.34h-37.67V329L732.33 228l20.33-21-61.5-61.5-20.66 20.67-64.67-64.67V38.33H267.67v6.33h-63V65h-17.34s-46-53.67-106.33-8.67C47 82 47.67 130 68 158.67H56v128.66h11S36.33 334 68.33 377c0 0 18.67 27 57 31z" id="m_1" data-name="1"/></symbol><symbol id="m2" viewBox="0 0 928.8 456" xmlns="http://www.w3.org/2000/svg"><defs><style>.ncls-1{isolation:isolate}.ncls-2{fill:none}</style></defs><image class="ncls-1" width="3870" height="1900" transform="scale(.24)" xmlns:xlink="http://www.w3.org/1999/xlink" xlink:href="\img\m2.jpg" id="nimg"/><path class="ncls-2" d="M128.33 407.5h705v-5.75h38.92V336.5H834V329L731.75 228l21.38-21.37L691 144.5l-21.12 21.13L606 101.5V39H268v5.75h-64V64h-17.5s-46.25-52.5-106.75-6.75c-22 13.5-37.75 69.25-12 101H55.5v129.5h12.25s-28.5 35.25-5 80.75c0 0 20.17 39 65.58 39z" id="n_1" data-name="1"/></symbol></svg>