<svg id="Слой_1" data-name="Слой 1" xmlns="http://www.w3.org/2000/svg" xmlns:xlink="http://www.w3.org/1999/xlink" viewBox="0 0 859.2 407.04"><defs><style>.cls-1{isolation:isolate;}.cls-2{fill:none;}</style></defs><title>11floor</title><g id="img"><image class="cls-1" width="3580" height="1696" transform="scale(0.24)" xlink:href="\img\11.jpg"/></g><g id="_1" data-name="1"><path class="cls-2" d="M213,200.33V181.67h33V40h-5.33V20.33H175v20H155s-28-39.67-87.33-17C40,35.33,30.67,65,30.67,65L27,80.67V200.33H213Z"/></g><g id="_2" data-name="2"><polygon class="cls-2" points="239 181.67 321.67 181.67 321.67 40 315 40 315 14 237.33 14 237.33 48.33 239.67 48.33 239 181.67"/></g><g id="_3" data-name="3"><polygon class="cls-2" points="316 181 410.67 181 410.67 144.67 439.67 144.67 439.67 15 371.33 15 311.33 15 311.33 48.67 316.67 48.67 316 181"/></g><g id="_4" data-name="4"><polygon class="cls-2" points="564.67 148 606 109.67 636.33 140.33 657.33 120.33 718.33 181 697.67 201.67 799.33 303 799.33 310.33 836.67 310.33 836.67 370 844 370 844 375.67 798.67 375.67 798.67 379 564.67 379 564.67 148"/></g><g id="_5" data-name="5"><rect class="cls-2" x="375.33" y="210" width="195.67" height="169"/></g><g id="_6" data-name="6"><rect class="cls-2" x="239.67" y="210" width="140.33" height="169"/></g><g id="_7" data-name="7"><path class="cls-2" d="M245,378.67H100.33s-38.33.67-62.67-34.33A81.34,81.34,0,0,1,28,320l-1.67-13.67v-111h187v15H245Z"/></g></svg>