<svg id="Слой_1" data-name="Слой 1" xmlns="http://www.w3.org/2000/svg" xmlns:xlink="http://www.w3.org/1999/xlink" viewBox="0 0 879.36 414.72"><defs><style>.cls-1{isolation:isolate;}.cls-2{fill:none;}</style></defs><title>15floor</title><g id="img"><image class="cls-1" width="3664" height="1728" transform="scale(0.24)" xlink:href="\img\15.jpg"/></g><g id="_1" data-name="1"><path class="cls-2" d="M163,43.33h19V23h63V17.67h76.67V43.33h7.67V184.67H221v18H34V135.33H48.67S24,101,39.67,64.67,86.33,22,86.33,22,132.67,7,163,43.33Z"/></g><g id="_2" data-name="2"><path class="cls-2" d="M321,42.67h3.33V184.33s94.67,2.33,94.67,0V148h28.67V17.33H319V42.69Z"/></g><g id="_3" data-name="3"><polygon class="cls-2" points="573 150 612.5 111.5 644.5 143.5 664.63 123.38 725.88 184.63 705 205.5 805.63 306.13 805.63 313 844.75 313 844.75 373 852 373 852 378.25 806.5 378.25 806.5 382 573 382 573 150"/></g><g id="_4" data-name="4"><polygon class="cls-2" points="578.33 381.67 578.33 212.67 383.33 212.67 383.33 372.67 439.68 372.67 439.68 381.67 578.33 381.67"/></g><g id="_5" data-name="5"><polygon class="cls-2" points="389 213.33 389 346 387.17 346 387.17 372 332 372 332 381.5 327 381.5 327 397.25 298.5 397.25 298.5 381.5 246.75 381.5 246.75 213.33 389 213.33"/></g><g id="_6" data-name="6"><path class="cls-2" d="M252.67,381.33h-146s-47,1-67.67-46.67C34.33,318,28.67,291,48.67,264.33H34.52v-66H220.33v15h32.33v168Z"/></g></svg>