<svg id="Слой_1" data-name="Слой 1" xmlns="http://www.w3.org/2000/svg" xmlns:xlink="http://www.w3.org/1999/xlink" viewBox="0 0 881.28 404.16"><defs><style>.cls-1{isolation:isolate;}.cls-2{fill:none;}</style></defs><title>18-2floor</title><g id="img"><image class="cls-1" width="3672" height="1684" transform="scale(0.24)" xlink:href="\img\18-2.jpg"/></g><g id="_1" data-name="1"><path class="cls-2" d="M252.67,180V12.67h-8v4.67H181.33v20H163s-41.67-46-97.67-11C41.67,41.33,18,87.67,48,131H33.9v63.33H220V179Z"/></g><g id="_2" data-name="2"><polygon class="cls-2" points="572.33 146.67 612.67 106.67 644 138.33 664.33 118 725.67 179 705 199 806.33 300.67 806.33 307.67 844.33 307.67 844.33 367.33 851.67 367.33 851.67 373 805.67 373 805.67 376.33 572.33 376.33 572.33 146.67"/></g><g id="_3" data-name="3"><path class="cls-2" d="M253.33,376.33V208H221V190.67H33.67V259H48.33s-34.67,42,2.33,91.33c7.67,6.67,11.67,18,49,26Z"/></g></svg>