<svg id="Слой_1" data-name="Слой 1" xmlns="http://www.w3.org/2000/svg" xmlns:xlink="http://www.w3.org/1999/xlink" viewBox="0 0 862.08 466.56"><defs><style>.cls-1{isolation:isolate;}.cls-2{fill:none;stroke:#000;stroke-miterlimit:10;}</style></defs><title>2floor</title><g id="img"><image class="cls-1" width="3592" height="1944" transform="scale(0.24)" xlink:href="\img\2.jpg"/></g><g id="_1" data-name="1"><path class="cls-2" d="M83.5,223.63v-65H74.67s-35-41.33-2.33-90.33,100-28,114-5h83.33V37H355V223.63Z"/></g><g id="_2" data-name="2"><path class="cls-2" d="M83.5,223.63v59H75S47,310,63.33,357,134,403.33,134,403.33H355V223.63Z"/></g><g id="_3" data-name="3"><polygon class="cls-2" points="348 200.33 444.33 200.33 444.33 167.67 473 167.67 473 37 356 37 356 65.67 351.33 65.67 351.33 140.33 348 140.33 348 200.33"/></g><g id="_4" data-name="4"><polygon class="cls-2" points="544.33 403 544.33 237.33 410.5 237.33 410.5 261.67 408.33 261.67 408.33 403 544.33 403"/></g><g id="_5" data-name="5"><polygon class="cls-2" points="542 237 542 402.67 739.33 402.67 739.33 385 592 237 542 237"/></g></svg>