<svg id="Слой_1" data-name="Слой 1" xmlns="http://www.w3.org/2000/svg" xmlns:xlink="http://www.w3.org/1999/xlink" viewBox="0 0 846.72 424.32"><defs><style>.cls-1{isolation:isolate;}.cls-2{fill:none;}</style></defs><title>4-10floor</title><g id="img"><image class="cls-1" width="3528" height="1768" transform="scale(0.24)" xlink:href="\img\4-10.jpg"/></g><g id="_1" data-name="1"><path class="cls-2" d="M204.33,201.33V183.67H238V42.33h-6.33v-21h-66V42H146S118.33,3.33,62.67,23.33C35.67,33.67,21.33,60,18.33,80.67V201.33h186Z"/></g><g id="_2" data-name="2"><polygon class="cls-2" points="230.67 183.33 313 183.33 313 41.67 306 41.67 306 16 230.67 16 230.67 183.33"/></g><g id="_3" data-name="3"><polygon class="cls-2" points="307.33 183.67 402.67 183.67 402.67 146.67 431.67 146.67 431.67 16.33 303.33 16.33 303.33 50 307.33 50 307.33 183.67"/></g><g id="_4" data-name="4"><polygon class="cls-2" points="556.67 149.67 597 112 628 142.67 648.33 121.67 709.67 183 689 203.33 695 209.33 640.33 267.33 576.33 203 579.67 199.67 556.67 175.67 556.67 149.67"/></g><g id="_5" data-name="5"><polygon class="cls-2" points="790 380 556.67 380 556.67 220 559 220 562 217.33 580.33 199.67 641.33 259.33 693 207 790 304.67 790 312.33 828 312.33 828 371.33 835 371.33 835 376.67 790.33 376.67 790 380"/></g><g id="_6" data-name="6"><polygon class="cls-2" points="562 380.33 562 219.33 526 219.33 526 212.16 366.67 212.16 366.67 345 368.67 345 368.67 380.33 562 380.33"/></g><g id="_7" data-name="7"><polygon class="cls-2" points="373.33 212.16 373.33 345 371.33 345 371.33 380.33 231 380.33 231 212.16 373.33 212.16"/></g><g id="_8" data-name="8"><path class="cls-2" d="M236.67,380.33V212.16H205.33V196h-187V313.33s0,24.67,25,49.33C59.67,374,58.67,375,85.67,380.33Z"/></g></svg>